<mxfile host="65bd71144e">
    <diagram id="2H_Oy5W7qLVuxR84wr-O" name="Page-1">
        <mxGraphModel dx="954" dy="644" grid="1" gridSize="10" guides="1" tooltips="1" connect="1" arrows="1" fold="1" page="1" pageScale="1" pageWidth="850" pageHeight="1100" math="0" shadow="0">
            <root>
                <mxCell id="0"/>
                <mxCell id="1" parent="0"/>
                <mxCell id="8" value="" style="rounded=0;whiteSpace=wrap;html=1;" vertex="1" parent="1">
                    <mxGeometry x="45" y="30" width="765" height="2930" as="geometry"/>
                </mxCell>
                <mxCell id="9" value="" style="rounded=0;whiteSpace=wrap;html=1;" vertex="1" parent="1">
                    <mxGeometry x="45" y="30" width="765" height="60" as="geometry"/>
                </mxCell>
                <mxCell id="10" value="" style="rounded=0;whiteSpace=wrap;html=1;" vertex="1" parent="1">
                    <mxGeometry x="295" y="30" width="120" height="60" as="geometry"/>
                </mxCell>
                <mxCell id="11" value="" style="rounded=0;whiteSpace=wrap;html=1;" vertex="1" parent="1">
                    <mxGeometry x="555" y="30" width="120" height="60" as="geometry"/>
                </mxCell>
                <mxCell id="12" value="&lt;font style=&quot;font-size: 24px;&quot;&gt;music page&lt;/font&gt;" style="text;html=1;strokeColor=none;fillColor=none;align=center;verticalAlign=middle;whiteSpace=wrap;rounded=0;" vertex="1" parent="1">
                    <mxGeometry x="325" y="45" width="60" height="30" as="geometry"/>
                </mxCell>
                <mxCell id="13" value="&lt;span style=&quot;font-size: 24px;&quot;&gt;movie&lt;br&gt;page&lt;/span&gt;" style="text;html=1;strokeColor=none;fillColor=none;align=center;verticalAlign=middle;whiteSpace=wrap;rounded=0;" vertex="1" parent="1">
                    <mxGeometry x="585" y="45" width="60" height="30" as="geometry"/>
                </mxCell>
                <mxCell id="15" value="" style="rounded=0;whiteSpace=wrap;html=1;" vertex="1" parent="1">
                    <mxGeometry x="45" y="30" width="120" height="60" as="geometry"/>
                </mxCell>
                <mxCell id="16" value="&lt;font style=&quot;font-size: 24px;&quot;&gt;LOGO&lt;/font&gt;" style="text;html=1;strokeColor=none;fillColor=none;align=center;verticalAlign=middle;whiteSpace=wrap;rounded=0;" vertex="1" parent="1">
                    <mxGeometry x="75" y="45" width="60" height="30" as="geometry"/>
                </mxCell>
                <mxCell id="17" value="" style="rounded=0;whiteSpace=wrap;html=1;fontSize=24;" vertex="1" parent="1">
                    <mxGeometry x="310" y="560" width="235" height="75" as="geometry"/>
                </mxCell>
                <mxCell id="18" value="&lt;font size=&quot;3&quot;&gt;Best movies of 90s&lt;/font&gt;" style="text;html=1;strokeColor=none;fillColor=none;align=center;verticalAlign=middle;whiteSpace=wrap;rounded=0;" vertex="1" parent="1">
                    <mxGeometry x="349.5" y="572.5" width="160" height="50" as="geometry"/>
                </mxCell>
                <mxCell id="20" value="" style="rounded=0;whiteSpace=wrap;html=1;fontSize=24;" vertex="1" parent="1">
                    <mxGeometry x="249.5" y="710" width="360" height="150" as="geometry"/>
                </mxCell>
                <mxCell id="21" value="" style="rounded=0;whiteSpace=wrap;html=1;fontSize=24;" vertex="1" parent="1">
                    <mxGeometry x="409.5" y="710" width="200.5" height="50" as="geometry"/>
                </mxCell>
                <mxCell id="22" value="" style="rounded=0;whiteSpace=wrap;html=1;fontSize=24;" vertex="1" parent="1">
                    <mxGeometry x="409.5" y="760" width="200.5" height="50" as="geometry"/>
                </mxCell>
                <mxCell id="23" value="" style="rounded=0;whiteSpace=wrap;html=1;fontSize=24;" vertex="1" parent="1">
                    <mxGeometry x="409.5" y="810" width="200.5" height="50" as="geometry"/>
                </mxCell>
                <mxCell id="24" value="&lt;font size=&quot;3&quot;&gt;Best&amp;nbsp;&lt;/font&gt;&lt;span style=&quot;font-size: medium;&quot;&gt;movie&amp;nbsp;&lt;/span&gt;&lt;font size=&quot;3&quot;&gt;of 1990&lt;/font&gt;" style="text;html=1;strokeColor=none;fillColor=none;align=center;verticalAlign=middle;whiteSpace=wrap;rounded=0;" vertex="1" parent="1">
                    <mxGeometry x="429.75" y="710" width="160" height="50" as="geometry"/>
                </mxCell>
                <mxCell id="25" value="&lt;font size=&quot;3&quot;&gt;Director&lt;/font&gt;" style="text;html=1;strokeColor=none;fillColor=none;align=center;verticalAlign=middle;whiteSpace=wrap;rounded=0;" vertex="1" parent="1">
                    <mxGeometry x="425" y="760" width="160" height="50" as="geometry"/>
                </mxCell>
                <mxCell id="26" value="&lt;font size=&quot;3&quot;&gt;Studio&lt;/font&gt;" style="text;html=1;strokeColor=none;fillColor=none;align=center;verticalAlign=middle;whiteSpace=wrap;rounded=0;" vertex="1" parent="1">
                    <mxGeometry x="429.75" y="810" width="160" height="50" as="geometry"/>
                </mxCell>
                <mxCell id="27" value="" style="rounded=0;whiteSpace=wrap;html=1;fontSize=24;" vertex="1" parent="1">
                    <mxGeometry x="249.5" y="710" width="160.5" height="150" as="geometry"/>
                </mxCell>
                <mxCell id="28" value="Trailer" style="text;html=1;strokeColor=none;fillColor=none;align=center;verticalAlign=middle;whiteSpace=wrap;rounded=0;fontSize=24;" vertex="1" parent="1">
                    <mxGeometry x="299.75" y="760" width="60" height="30" as="geometry"/>
                </mxCell>
                <mxCell id="29" value="" style="rounded=0;whiteSpace=wrap;html=1;fontSize=24;" vertex="1" parent="1">
                    <mxGeometry x="412" y="910" width="200.5" height="50" as="geometry"/>
                </mxCell>
                <mxCell id="30" value="" style="rounded=0;whiteSpace=wrap;html=1;fontSize=24;" vertex="1" parent="1">
                    <mxGeometry x="412" y="960" width="200.5" height="50" as="geometry"/>
                </mxCell>
                <mxCell id="31" value="" style="rounded=0;whiteSpace=wrap;html=1;fontSize=24;" vertex="1" parent="1">
                    <mxGeometry x="412" y="1010" width="200.5" height="50" as="geometry"/>
                </mxCell>
                <mxCell id="32" value="&lt;font size=&quot;3&quot;&gt;Best&amp;nbsp;&lt;/font&gt;&lt;span style=&quot;font-size: medium;&quot;&gt;movie&amp;nbsp;&lt;/span&gt;&lt;font size=&quot;3&quot;&gt;of 1991&lt;/font&gt;" style="text;html=1;strokeColor=none;fillColor=none;align=center;verticalAlign=middle;whiteSpace=wrap;rounded=0;" vertex="1" parent="1">
                    <mxGeometry x="432.25" y="910" width="160" height="50" as="geometry"/>
                </mxCell>
                <mxCell id="33" value="&lt;span style=&quot;font-size: medium;&quot;&gt;Director&lt;/span&gt;" style="text;html=1;strokeColor=none;fillColor=none;align=center;verticalAlign=middle;whiteSpace=wrap;rounded=0;" vertex="1" parent="1">
                    <mxGeometry x="427.5" y="960" width="160" height="50" as="geometry"/>
                </mxCell>
                <mxCell id="34" value="&lt;span style=&quot;font-size: medium;&quot;&gt;Studio&lt;/span&gt;" style="text;html=1;strokeColor=none;fillColor=none;align=center;verticalAlign=middle;whiteSpace=wrap;rounded=0;" vertex="1" parent="1">
                    <mxGeometry x="432.25" y="1010" width="160" height="50" as="geometry"/>
                </mxCell>
                <mxCell id="35" value="" style="rounded=0;whiteSpace=wrap;html=1;fontSize=24;" vertex="1" parent="1">
                    <mxGeometry x="252" y="910" width="160.5" height="150" as="geometry"/>
                </mxCell>
                <mxCell id="36" value="Trailer" style="text;html=1;strokeColor=none;fillColor=none;align=center;verticalAlign=middle;whiteSpace=wrap;rounded=0;fontSize=24;" vertex="1" parent="1">
                    <mxGeometry x="302.25" y="960" width="60" height="30" as="geometry"/>
                </mxCell>
                <mxCell id="37" value="" style="rounded=0;whiteSpace=wrap;html=1;fontSize=24;" vertex="1" parent="1">
                    <mxGeometry x="412" y="1110" width="200.5" height="50" as="geometry"/>
                </mxCell>
                <mxCell id="38" value="" style="rounded=0;whiteSpace=wrap;html=1;fontSize=24;" vertex="1" parent="1">
                    <mxGeometry x="412" y="1160" width="200.5" height="50" as="geometry"/>
                </mxCell>
                <mxCell id="39" value="" style="rounded=0;whiteSpace=wrap;html=1;fontSize=24;" vertex="1" parent="1">
                    <mxGeometry x="412" y="1210" width="200.5" height="50" as="geometry"/>
                </mxCell>
                <mxCell id="40" value="&lt;font size=&quot;3&quot;&gt;Best&amp;nbsp;&lt;/font&gt;&lt;span style=&quot;font-size: medium;&quot;&gt;movie&amp;nbsp;&lt;/span&gt;&lt;font size=&quot;3&quot;&gt;of 1992&lt;/font&gt;" style="text;html=1;strokeColor=none;fillColor=none;align=center;verticalAlign=middle;whiteSpace=wrap;rounded=0;" vertex="1" parent="1">
                    <mxGeometry x="432.25" y="1110" width="160" height="50" as="geometry"/>
                </mxCell>
                <mxCell id="41" value="&lt;span style=&quot;font-size: medium;&quot;&gt;Director&lt;/span&gt;" style="text;html=1;strokeColor=none;fillColor=none;align=center;verticalAlign=middle;whiteSpace=wrap;rounded=0;" vertex="1" parent="1">
                    <mxGeometry x="429.75" y="1160" width="160" height="45" as="geometry"/>
                </mxCell>
                <mxCell id="42" value="&lt;span style=&quot;font-size: medium;&quot;&gt;Studio&lt;/span&gt;" style="text;html=1;strokeColor=none;fillColor=none;align=center;verticalAlign=middle;whiteSpace=wrap;rounded=0;" vertex="1" parent="1">
                    <mxGeometry x="432.25" y="1210" width="160" height="50" as="geometry"/>
                </mxCell>
                <mxCell id="43" value="" style="rounded=0;whiteSpace=wrap;html=1;fontSize=24;" vertex="1" parent="1">
                    <mxGeometry x="252" y="1110" width="160.5" height="150" as="geometry"/>
                </mxCell>
                <mxCell id="44" value="Trailer" style="text;html=1;strokeColor=none;fillColor=none;align=center;verticalAlign=middle;whiteSpace=wrap;rounded=0;fontSize=24;" vertex="1" parent="1">
                    <mxGeometry x="302.25" y="1160" width="60" height="30" as="geometry"/>
                </mxCell>
                <mxCell id="45" value="" style="rounded=0;whiteSpace=wrap;html=1;fontSize=24;" vertex="1" parent="1">
                    <mxGeometry x="412" y="1310" width="200.5" height="50" as="geometry"/>
                </mxCell>
                <mxCell id="46" value="" style="rounded=0;whiteSpace=wrap;html=1;fontSize=24;" vertex="1" parent="1">
                    <mxGeometry x="412" y="1360" width="200.5" height="50" as="geometry"/>
                </mxCell>
                <mxCell id="47" value="" style="rounded=0;whiteSpace=wrap;html=1;fontSize=24;" vertex="1" parent="1">
                    <mxGeometry x="412" y="1410" width="200.5" height="50" as="geometry"/>
                </mxCell>
                <mxCell id="48" value="&lt;font size=&quot;3&quot;&gt;Best&amp;nbsp;&lt;/font&gt;&lt;span style=&quot;font-size: medium;&quot;&gt;movie&amp;nbsp;&lt;/span&gt;&lt;font size=&quot;3&quot;&gt;of 1993&lt;/font&gt;" style="text;html=1;strokeColor=none;fillColor=none;align=center;verticalAlign=middle;whiteSpace=wrap;rounded=0;" vertex="1" parent="1">
                    <mxGeometry x="432.25" y="1310" width="160" height="50" as="geometry"/>
                </mxCell>
                <mxCell id="49" value="&lt;span style=&quot;font-size: medium;&quot;&gt;Director&lt;/span&gt;" style="text;html=1;strokeColor=none;fillColor=none;align=center;verticalAlign=middle;whiteSpace=wrap;rounded=0;" vertex="1" parent="1">
                    <mxGeometry x="427.5" y="1360" width="160" height="50" as="geometry"/>
                </mxCell>
                <mxCell id="50" value="&lt;span style=&quot;font-size: medium;&quot;&gt;Studio&lt;/span&gt;" style="text;html=1;strokeColor=none;fillColor=none;align=center;verticalAlign=middle;whiteSpace=wrap;rounded=0;" vertex="1" parent="1">
                    <mxGeometry x="432.25" y="1410" width="160" height="50" as="geometry"/>
                </mxCell>
                <mxCell id="51" value="" style="rounded=0;whiteSpace=wrap;html=1;fontSize=24;" vertex="1" parent="1">
                    <mxGeometry x="252" y="1310" width="160.5" height="150" as="geometry"/>
                </mxCell>
                <mxCell id="52" value="Trailer" style="text;html=1;strokeColor=none;fillColor=none;align=center;verticalAlign=middle;whiteSpace=wrap;rounded=0;fontSize=24;" vertex="1" parent="1">
                    <mxGeometry x="302.25" y="1360" width="60" height="30" as="geometry"/>
                </mxCell>
                <mxCell id="53" value="" style="rounded=0;whiteSpace=wrap;html=1;fontSize=24;" vertex="1" parent="1">
                    <mxGeometry x="412" y="1510" width="200.5" height="50" as="geometry"/>
                </mxCell>
                <mxCell id="54" value="" style="rounded=0;whiteSpace=wrap;html=1;fontSize=24;" vertex="1" parent="1">
                    <mxGeometry x="412" y="1560" width="200.5" height="50" as="geometry"/>
                </mxCell>
                <mxCell id="55" value="" style="rounded=0;whiteSpace=wrap;html=1;fontSize=24;" vertex="1" parent="1">
                    <mxGeometry x="412" y="1610" width="200.5" height="50" as="geometry"/>
                </mxCell>
                <mxCell id="56" value="&lt;font size=&quot;3&quot;&gt;Best&amp;nbsp;&lt;/font&gt;&lt;span style=&quot;font-size: medium;&quot;&gt;movie&amp;nbsp;&lt;/span&gt;&lt;font size=&quot;3&quot;&gt;of 1994&lt;/font&gt;" style="text;html=1;strokeColor=none;fillColor=none;align=center;verticalAlign=middle;whiteSpace=wrap;rounded=0;" vertex="1" parent="1">
                    <mxGeometry x="432.25" y="1510" width="160" height="50" as="geometry"/>
                </mxCell>
                <mxCell id="57" value="&lt;span style=&quot;font-size: medium;&quot;&gt;Director&lt;/span&gt;" style="text;html=1;strokeColor=none;fillColor=none;align=center;verticalAlign=middle;whiteSpace=wrap;rounded=0;" vertex="1" parent="1">
                    <mxGeometry x="427.5" y="1560" width="160" height="50" as="geometry"/>
                </mxCell>
                <mxCell id="58" value="&lt;span style=&quot;font-size: medium;&quot;&gt;Studio&lt;/span&gt;" style="text;html=1;strokeColor=none;fillColor=none;align=center;verticalAlign=middle;whiteSpace=wrap;rounded=0;" vertex="1" parent="1">
                    <mxGeometry x="432.25" y="1610" width="160" height="50" as="geometry"/>
                </mxCell>
                <mxCell id="59" value="" style="rounded=0;whiteSpace=wrap;html=1;fontSize=24;" vertex="1" parent="1">
                    <mxGeometry x="252" y="1510" width="160.5" height="150" as="geometry"/>
                </mxCell>
                <mxCell id="60" value="Trailer" style="text;html=1;strokeColor=none;fillColor=none;align=center;verticalAlign=middle;whiteSpace=wrap;rounded=0;fontSize=24;" vertex="1" parent="1">
                    <mxGeometry x="302.25" y="1560" width="60" height="30" as="geometry"/>
                </mxCell>
                <mxCell id="61" value="" style="rounded=0;whiteSpace=wrap;html=1;fontSize=24;" vertex="1" parent="1">
                    <mxGeometry x="412" y="1710" width="200.5" height="50" as="geometry"/>
                </mxCell>
                <mxCell id="62" value="" style="rounded=0;whiteSpace=wrap;html=1;fontSize=24;" vertex="1" parent="1">
                    <mxGeometry x="412" y="1760" width="200.5" height="50" as="geometry"/>
                </mxCell>
                <mxCell id="63" value="" style="rounded=0;whiteSpace=wrap;html=1;fontSize=24;" vertex="1" parent="1">
                    <mxGeometry x="412" y="1810" width="200.5" height="50" as="geometry"/>
                </mxCell>
                <mxCell id="64" value="&lt;font size=&quot;3&quot;&gt;Best&amp;nbsp;&lt;/font&gt;&lt;span style=&quot;font-size: medium;&quot;&gt;movie&amp;nbsp;&lt;/span&gt;&lt;font size=&quot;3&quot;&gt;of 1995&lt;/font&gt;" style="text;html=1;strokeColor=none;fillColor=none;align=center;verticalAlign=middle;whiteSpace=wrap;rounded=0;" vertex="1" parent="1">
                    <mxGeometry x="432.25" y="1710" width="160" height="50" as="geometry"/>
                </mxCell>
                <mxCell id="65" value="&lt;span style=&quot;font-size: medium;&quot;&gt;Director&lt;/span&gt;" style="text;html=1;strokeColor=none;fillColor=none;align=center;verticalAlign=middle;whiteSpace=wrap;rounded=0;" vertex="1" parent="1">
                    <mxGeometry x="427.5" y="1760" width="160" height="50" as="geometry"/>
                </mxCell>
                <mxCell id="66" value="&lt;span style=&quot;font-size: medium;&quot;&gt;Studio&lt;/span&gt;" style="text;html=1;strokeColor=none;fillColor=none;align=center;verticalAlign=middle;whiteSpace=wrap;rounded=0;" vertex="1" parent="1">
                    <mxGeometry x="432.25" y="1810" width="160" height="50" as="geometry"/>
                </mxCell>
                <mxCell id="67" value="" style="rounded=0;whiteSpace=wrap;html=1;fontSize=24;" vertex="1" parent="1">
                    <mxGeometry x="252" y="1710" width="160.5" height="150" as="geometry"/>
                </mxCell>
                <mxCell id="68" value="Trailer" style="text;html=1;strokeColor=none;fillColor=none;align=center;verticalAlign=middle;whiteSpace=wrap;rounded=0;fontSize=24;" vertex="1" parent="1">
                    <mxGeometry x="302.25" y="1760" width="60" height="30" as="geometry"/>
                </mxCell>
                <mxCell id="69" value="" style="rounded=0;whiteSpace=wrap;html=1;fontSize=24;" vertex="1" parent="1">
                    <mxGeometry x="412" y="1910" width="200.5" height="50" as="geometry"/>
                </mxCell>
                <mxCell id="70" value="" style="rounded=0;whiteSpace=wrap;html=1;fontSize=24;" vertex="1" parent="1">
                    <mxGeometry x="412" y="1960" width="200.5" height="50" as="geometry"/>
                </mxCell>
                <mxCell id="71" value="" style="rounded=0;whiteSpace=wrap;html=1;fontSize=24;" vertex="1" parent="1">
                    <mxGeometry x="412" y="2010" width="200.5" height="50" as="geometry"/>
                </mxCell>
                <mxCell id="72" value="&lt;font size=&quot;3&quot;&gt;Best&amp;nbsp;&lt;/font&gt;&lt;span style=&quot;font-size: medium;&quot;&gt;movie&amp;nbsp;&lt;/span&gt;&lt;font size=&quot;3&quot;&gt;of 1996&lt;/font&gt;" style="text;html=1;strokeColor=none;fillColor=none;align=center;verticalAlign=middle;whiteSpace=wrap;rounded=0;" vertex="1" parent="1">
                    <mxGeometry x="432.25" y="1910" width="160" height="50" as="geometry"/>
                </mxCell>
                <mxCell id="73" value="&lt;span style=&quot;font-size: medium;&quot;&gt;Director&lt;/span&gt;" style="text;html=1;strokeColor=none;fillColor=none;align=center;verticalAlign=middle;whiteSpace=wrap;rounded=0;" vertex="1" parent="1">
                    <mxGeometry x="427.5" y="1960" width="160" height="50" as="geometry"/>
                </mxCell>
                <mxCell id="74" value="&lt;span style=&quot;font-size: medium;&quot;&gt;Studio&lt;/span&gt;" style="text;html=1;strokeColor=none;fillColor=none;align=center;verticalAlign=middle;whiteSpace=wrap;rounded=0;" vertex="1" parent="1">
                    <mxGeometry x="432.25" y="2010" width="160" height="50" as="geometry"/>
                </mxCell>
                <mxCell id="75" value="" style="rounded=0;whiteSpace=wrap;html=1;fontSize=24;" vertex="1" parent="1">
                    <mxGeometry x="252" y="1910" width="160.5" height="150" as="geometry"/>
                </mxCell>
                <mxCell id="76" value="Trailer" style="text;html=1;strokeColor=none;fillColor=none;align=center;verticalAlign=middle;whiteSpace=wrap;rounded=0;fontSize=24;" vertex="1" parent="1">
                    <mxGeometry x="302.25" y="1960" width="60" height="30" as="geometry"/>
                </mxCell>
                <mxCell id="77" value="" style="rounded=0;whiteSpace=wrap;html=1;fontSize=24;" vertex="1" parent="1">
                    <mxGeometry x="412" y="2110" width="200.5" height="50" as="geometry"/>
                </mxCell>
                <mxCell id="78" value="" style="rounded=0;whiteSpace=wrap;html=1;fontSize=24;" vertex="1" parent="1">
                    <mxGeometry x="412" y="2160" width="200.5" height="50" as="geometry"/>
                </mxCell>
                <mxCell id="79" value="" style="rounded=0;whiteSpace=wrap;html=1;fontSize=24;" vertex="1" parent="1">
                    <mxGeometry x="412" y="2210" width="200.5" height="50" as="geometry"/>
                </mxCell>
                <mxCell id="80" value="&lt;font size=&quot;3&quot;&gt;Best&amp;nbsp;&lt;/font&gt;&lt;span style=&quot;font-size: medium;&quot;&gt;movie&amp;nbsp;&lt;/span&gt;&lt;font size=&quot;3&quot;&gt;of 1997&lt;/font&gt;" style="text;html=1;strokeColor=none;fillColor=none;align=center;verticalAlign=middle;whiteSpace=wrap;rounded=0;" vertex="1" parent="1">
                    <mxGeometry x="432.25" y="2110" width="160" height="50" as="geometry"/>
                </mxCell>
                <mxCell id="81" value="&lt;span style=&quot;font-size: medium;&quot;&gt;Director&lt;/span&gt;" style="text;html=1;strokeColor=none;fillColor=none;align=center;verticalAlign=middle;whiteSpace=wrap;rounded=0;" vertex="1" parent="1">
                    <mxGeometry x="427.5" y="2160" width="160" height="50" as="geometry"/>
                </mxCell>
                <mxCell id="82" value="&lt;span style=&quot;font-size: medium;&quot;&gt;Studio&lt;/span&gt;" style="text;html=1;strokeColor=none;fillColor=none;align=center;verticalAlign=middle;whiteSpace=wrap;rounded=0;" vertex="1" parent="1">
                    <mxGeometry x="432.25" y="2210" width="160" height="50" as="geometry"/>
                </mxCell>
                <mxCell id="83" value="" style="rounded=0;whiteSpace=wrap;html=1;fontSize=24;" vertex="1" parent="1">
                    <mxGeometry x="252" y="2110" width="160.5" height="150" as="geometry"/>
                </mxCell>
                <mxCell id="84" value="Trailer" style="text;html=1;strokeColor=none;fillColor=none;align=center;verticalAlign=middle;whiteSpace=wrap;rounded=0;fontSize=24;" vertex="1" parent="1">
                    <mxGeometry x="302.25" y="2160" width="60" height="30" as="geometry"/>
                </mxCell>
                <mxCell id="85" value="" style="rounded=0;whiteSpace=wrap;html=1;fontSize=24;" vertex="1" parent="1">
                    <mxGeometry x="412" y="2310" width="200.5" height="50" as="geometry"/>
                </mxCell>
                <mxCell id="86" value="" style="rounded=0;whiteSpace=wrap;html=1;fontSize=24;" vertex="1" parent="1">
                    <mxGeometry x="412" y="2360" width="200.5" height="50" as="geometry"/>
                </mxCell>
                <mxCell id="87" value="" style="rounded=0;whiteSpace=wrap;html=1;fontSize=24;" vertex="1" parent="1">
                    <mxGeometry x="412" y="2410" width="200.5" height="50" as="geometry"/>
                </mxCell>
                <mxCell id="88" value="&lt;font size=&quot;3&quot;&gt;Best&amp;nbsp;&lt;/font&gt;&lt;span style=&quot;font-size: medium;&quot;&gt;movie&amp;nbsp;&lt;/span&gt;&lt;font size=&quot;3&quot;&gt;of 1998&lt;/font&gt;" style="text;html=1;strokeColor=none;fillColor=none;align=center;verticalAlign=middle;whiteSpace=wrap;rounded=0;" vertex="1" parent="1">
                    <mxGeometry x="432.25" y="2310" width="160" height="50" as="geometry"/>
                </mxCell>
                <mxCell id="89" value="&lt;span style=&quot;font-size: medium;&quot;&gt;Director&lt;/span&gt;" style="text;html=1;strokeColor=none;fillColor=none;align=center;verticalAlign=middle;whiteSpace=wrap;rounded=0;" vertex="1" parent="1">
                    <mxGeometry x="427.5" y="2360" width="160" height="50" as="geometry"/>
                </mxCell>
                <mxCell id="90" value="&lt;span style=&quot;font-size: medium;&quot;&gt;Studio&lt;/span&gt;" style="text;html=1;strokeColor=none;fillColor=none;align=center;verticalAlign=middle;whiteSpace=wrap;rounded=0;" vertex="1" parent="1">
                    <mxGeometry x="432.25" y="2410" width="160" height="50" as="geometry"/>
                </mxCell>
                <mxCell id="91" value="" style="rounded=0;whiteSpace=wrap;html=1;fontSize=24;" vertex="1" parent="1">
                    <mxGeometry x="252" y="2310" width="160.5" height="150" as="geometry"/>
                </mxCell>
                <mxCell id="92" value="Trailer" style="text;html=1;strokeColor=none;fillColor=none;align=center;verticalAlign=middle;whiteSpace=wrap;rounded=0;fontSize=24;" vertex="1" parent="1">
                    <mxGeometry x="302.25" y="2360" width="60" height="30" as="geometry"/>
                </mxCell>
                <mxCell id="93" value="" style="rounded=0;whiteSpace=wrap;html=1;fontSize=24;" vertex="1" parent="1">
                    <mxGeometry x="412" y="2520" width="200.5" height="50" as="geometry"/>
                </mxCell>
                <mxCell id="94" value="" style="rounded=0;whiteSpace=wrap;html=1;fontSize=24;" vertex="1" parent="1">
                    <mxGeometry x="412" y="2570" width="200.5" height="50" as="geometry"/>
                </mxCell>
                <mxCell id="95" value="" style="rounded=0;whiteSpace=wrap;html=1;fontSize=24;" vertex="1" parent="1">
                    <mxGeometry x="412" y="2620" width="200.5" height="50" as="geometry"/>
                </mxCell>
                <mxCell id="96" value="&lt;font size=&quot;3&quot;&gt;Best&amp;nbsp;&lt;/font&gt;&lt;span style=&quot;font-size: medium;&quot;&gt;movie&amp;nbsp;&lt;/span&gt;&lt;font size=&quot;3&quot;&gt;of 1999&lt;/font&gt;" style="text;html=1;strokeColor=none;fillColor=none;align=center;verticalAlign=middle;whiteSpace=wrap;rounded=0;" vertex="1" parent="1">
                    <mxGeometry x="432.25" y="2520" width="160" height="50" as="geometry"/>
                </mxCell>
                <mxCell id="97" value="&lt;span style=&quot;font-size: medium;&quot;&gt;Director&lt;/span&gt;" style="text;html=1;strokeColor=none;fillColor=none;align=center;verticalAlign=middle;whiteSpace=wrap;rounded=0;" vertex="1" parent="1">
                    <mxGeometry x="427.5" y="2570" width="160" height="50" as="geometry"/>
                </mxCell>
                <mxCell id="98" value="&lt;span style=&quot;font-size: medium;&quot;&gt;Studio&lt;/span&gt;" style="text;html=1;strokeColor=none;fillColor=none;align=center;verticalAlign=middle;whiteSpace=wrap;rounded=0;" vertex="1" parent="1">
                    <mxGeometry x="432.25" y="2620" width="160" height="50" as="geometry"/>
                </mxCell>
                <mxCell id="99" value="" style="rounded=0;whiteSpace=wrap;html=1;fontSize=24;" vertex="1" parent="1">
                    <mxGeometry x="252" y="2520" width="160.5" height="150" as="geometry"/>
                </mxCell>
                <mxCell id="100" value="Trailer" style="text;html=1;strokeColor=none;fillColor=none;align=center;verticalAlign=middle;whiteSpace=wrap;rounded=0;fontSize=24;" vertex="1" parent="1">
                    <mxGeometry x="302.25" y="2570" width="60" height="30" as="geometry"/>
                </mxCell>
                <mxCell id="101" value="" style="shape=image;verticalLabelPosition=bottom;labelBackgroundColor=default;verticalAlign=top;aspect=fixed;imageAspect=0;image=data:image/jpeg,/9j/4AAQSkZJRgABAQAAAQABAAD/2wEEEAAbABsAGwAbABwAGwAeACEAIQAeACoALQAoAC0AKgA9ADgAMwAzADgAPQBdAEIARwBCAEcAQgBdAI0AWABnAFgAWABnAFgAjQB9AJcAewBzAHsAlwB9AOAAsACcAJwAsADgAQMA2QDOANkBAwE6ARkBGQE6AYsBdwGLAgQCBAK2EQAbABsAGwAbABwAGwAeACEAIQAeACoALQAoAC0AKgA9ADgAMwAzADgAPQBdAEIARwBCAEcAQgBdAI0AWABnAFgAWABnAFgAjQB9AJcAewBzAHsAlwB9AOAAsACcAJwAsADgAQMA2QDOANkBAwE6ARkBGQE6AYsBdwGLAgQCBAK2/8IAEQgDHATkAwEiAAIRAQMRAf/EABoAAQEBAQEBAQAAAAAAAAAAAAABAgMEBQb/2gAIAQEAAAAA+kkSVTVAACJBokZzkgFitLvVLbAIITMyturQCAAACkzMZzmiAUgtvoJEUulFQIBEqkkznJAKFutXS2oQQEkzDV1dBCAEABQmZnGQQCkFt9AkRWraAQQEFGZnOSAULbu22pAAhlmGrq2oQIEAAqpJmYkCAUQtekSQrVtAhAICkkxMkBQW3V1QIAEjMNXVoQIQQAFUkznMgQCiFX0CIVq21BEAhFUmZmZEBQturbUBCiEZhq6uiIIQgABVkkzmQIBRCr6BEK1dUREBBCqTMzMiBQW3VWkAAIzFutWiQhEAABSTMzIEAoha70iFuroIkCAhVSSZmRAoLbqqAAKSTK61dUkhEIAABYmZmQIBQi13pELq6oRIICCqkkzMiAoXTVKAAUkkW61oRIiIAAAsTMzIEAohbe1Ii3V1SIyICBRJJJkQFDVapQAFDMlt1q1EkREAAAEkzJAgFELb2pEXV1dGUkICAoymZIIChq20oAFBlF1rVqSSQiAAACZkkgQCiF07UiLu6tMpkgQAqSSTIgFFttpQAULJI1rWqSTKIQAAAkkzICAUQ1XZYRrWrqpmSIQABGZJBAKLpbSgAoqSS61rVSZZRCAAAEyzJAQCiLbeoRdaurUzMogABEymQgFGq1QUAKVJJd6uqkzJEIAAASSZkBAFEaq9Qi62uiZykIAATKSSkApbbaAUBRZJNa1q1MzKRAAAAzJlkBAKC23dRJvV0tTEkAABJJICAU1VtAAoUskmtbtqYkkQAAAJJmTKhA136dMebmW6aqQ1rTSs5ygAASEyAAW0toAAUpk1dXRM5kgAAAEzMyRQg7ez06rPk8MrV6KiaulpMwAAASQAAKoEEQKARrTSpnMBAAADMyzBRG+/SV06bzx8mLb6gKtokAAABAIUACZiqY55AqkjdtVMSQAAABMySKo127c+WMXXTrvvfJwPaqFWgQFFKAAAAAmcZjd1M8uMAoRdVpJiCAAABJJEW3WuvVy8/LIdO/p7a5eXHvttWrSgAAAgIAgAkznnlrduOfLnAKJNVqpnMAAAEBldXer00THPz8ZAuu/p9Pfn5fTdW6tABAEKQAhAgkITMzjBu2Y54kApC2jAQBABA6deu6XWrjnnHLzcsyBdXr6fV23y1bdWioAEAJCEiIkJISQkmZktrMygABokIEIAAPR6UxjLfTtpjHHz+bGZmWrbrfo799601bRUCJEkkiSJIZIkRIEJAEBVIAALAgiAIAvs68861vWpnnz5Y58s4wzG5bpvW+/voESQjMkIEIICCQAIAAK0CBAKQBCEAIXtrfTWZnGcYxjMznOYxdxrVurr6EAoCAEIgCEECASEJrVUW1EAhGVuiBBAiLCFu9ZkzJMYmZJEmLuLu6W/SAKBAgRAQIgSRJEgttu96UsBJEkMx09HVuhZmakWceOSWIXlzqCJjMzAmc63Furq36QABARAgSIkmZJIC29d6zrWrbrIJITMzIa3rfbt10oAIc/H54LY1dc/m4oEYkhUzNdM1da019IBAQIIyxMzMzmRVLpu61ve866dJkJEyMTMQ1vfTpverrSgAZYzjHG1ldFmOPh8cubFukgGZrcq601fpgMwkznGM5znMC6btautauttb7csahESJTPPBjE1fV9LZrVoACZlznGJEEuZK5NVHJJY4fOu0Kuc53baul19MRXl+djBretb1ve2lUtq3Wlazi5wZRbI4Z1pem5GCRuRYEIGZmxks6dvT6GMSYxlubpnpnpmeLy8dei8si3lM7NGtLr6RC3wb30tCCE4xuhnPTHTkrp5pnc6c40DZvStbUujOjSxLdTQzFhKYzCTVi0k3mcfJx3db3WOaTWeeBVtafUAeH1WyhCSPl+EAAVr248NAUUUClKFULbQ0FqhTSzR1+p87y6uOmpN3RWNzz77PP50po1fqAPB66IkCTx/KKgoAOnPGgACgAAAABYAAAyTt9LsjTQXn1z599t58eMirb9QGXh9OeXpCEieH5xUBQAmLoAAKAAAAAAACBkdfp9imhNcu2eG+u2PPywGl+mCZ8fpnXAhJE8XgABQA53UUAAKAAAAAABAMjr9TqtKM759Jx112OXn5QtfSoknj78vVmIiRJ5PCAAoBztCgAAoAAAAAIAGR1+p1WmouN8+k4b67K5+TOQ+kiSTzduPbUiSCTzeIAAoE56oUAAAoAAAAAAgyOv1OtWN5txrHScN9dlOfDjEe1BHm6ct9IJCHm8VAAKDEtAKlAACxQAAAAiwGR1+p1qms25Y7TzdOuykcOGD1QyjhvlvpYhJDh41AAUJz1qAACgAWFAAAARYAyOv1elWN5NZz1z5uvXYBz8+M9hCcdc701Ighx8agABc5u8gACgALAUAAIVAAZHX6vRbGoaznpPN167AW58/mN1E5XDWyAOPjKAAMy6gAVFAAFgKAAEAADI6/V3azdDWZqefr12Auk8Xmx20kcg6oAvHxFAAMNWAAoACgAAAAEAAZHX6nVY0FyOe+ugGrbj491qEwHUAOPiFAA520AFAAoigAAAAAIpMjr9Pfg9/QouRN7oFt113+fKGIOoAcvCKAGc6ABQhQAFSgAAAKIFBmHr9PX432O5YayNatBrfTfb0z8ktDEzq7FA4+EKAZzoAFAAAAFAAALFgACQ9H3Ov5v7W5kLYutLrW976duhz4fm1oYmd3YAc/nigGFAAoAAAFAAoAAAgJB3+v7/P17ZnLGc3OuvXrvprWtOWOvTPHz4+FbQzma3QFOXzygGFAAUAAACkoBQAAAgSSu/0/XPR6EYxmb9PberUOHkz31z8+NfE6LRnM1uhQcvnFAmNAABQABQlAAFAAACCQd/od3r9Gjldb9PWhnPHHHy99c+fLv7PyvpUXOG9gCufzCgznQAAUAAUAAAUAAAEEg7+7d9Po2476de2+tjPPljnz5c+2MZ6/R6fjfaLWee2ygpz+ZFEzNAAAoABQAAAoAAAIJB39i9t9OV3v3dcNM4xnHPnno5Ov0O3m/N+qqHLrx7VSg5/KFTKgAAoABQAAAoAAAQEg7+uN+nz+a9b09PowMJMY135T1evp5/H4rVE5dppQGMcvFFTFoAAUACgAAAKAAABAyHo9fPXbhzxvrpvp1SEkx29D198cfHxzi1TPH0AZ58+XJd+YrONgACgBQAAABQAAAEBkPT68MY5b7b6ZX0JETM9vp69Lz5+Tz+btoDz+hOfHlyy69u29vkSCAAoAUAAAKAAAAACAyHs+j5vPzy3111zL06ypGens9HXtpnlr8/qhHznLm69u3bagjOcZ5Za1u6JIkmYzCIEiAAAAAJNevr5eFAQGQ9vv+dxtuul6ZL6Pr97bVtmcefivzaA+Tvt266AJM8+eM3XTt062wiJnOJGta1u3VMwxnDV3aTMjMkzJIiQ19H1vnfLkRIAmR23ib1LrW5GvT96yIZzMcvPzZABSBJz545xrt27dNajOYSYxiLve9btoGcZmOeXbr26a0AMoW6VAjMkSRMySQvh88k11za1Ydvr2TKZzJM5lytQoEYxz5Yxd9vT6O1TMZZzMc+cN9Om920AOPHljHLGvX6u/TegUkkLq2pBCEAAPD8uJPTMK1K37zOYgSrLSBYxz58sZvTr6u/bqmCTOcc+fLnjM7errreqAAxw8vmzmTfr9Xp670FEki3VtSQhBAAGPl+aTF7XMFdewgCaWdSCYxy5Yl6d/X6OtYhUzjHLjyxhrVz39m9UBia0HPzePnmZl9fs9HbeigkkrV1SSEIIAAcfn8sZzA1a6aooBbOxnHPnyxL27+v19dZ5YmqSZ5cOHPObd7unPp7d0SWsZ1sOPn8uecxL6/X6e29CgzC61aiZIQIAAc/Ny5cpmQLu6pRBaOfLGc66+n2+jpcYwLTOOHDjjOrrd0o57920yk1tjG9icfNwxzmJr1ez0dt6FBMmtatTLKEAQACzHm+XlAa1rVo0SLU8M127d/R37ccAsMceHDGbd9NbEhZz37tsZpduWN9KTh5uGOeE6ev0+nrvQUJldauqzllCAEABU83xclUuta1S0JNSev29uXOSoVGOHDjzjWt9N2oiQs57920lcnS8efXrScPL5sc4vb1+nv03oKEy1rV0ZmZCAAIAseX42VorW92qEJE/QZ4ZAXnw4efBdb3vaqkRIWc9+7bnNzhe14c/R0pOHj8uM3W+/p79em7QVJG9XVM5yiAAEAE83x8VbDWt6ugSIkn2clGeHm8/NWt9N7pQMokDnv3bxwvbHDp2cMd+tJx8njmt9OnTt06b6agKkjerbWMyIACAAJ5/jZqUut3VCEkMvtCefz+bktb6dN2lAJESFnPfu3y8/Xrz4dO14Tv0Dl5vO6b1ve99N7sASRu26M4kQAAABOXyOSJbdaLCSBpX2eHm83GVdb6dbSkoBIiRTlr374+bv0x5+va8s9ugY5YXWt73vdthEGY1dW1iRCCAAAJnw+DIFolLre7rVX5uat306bKoAAkQgcr7+nDy9+2eHXteeOm6JnJrfTprRYIiJlq3VrMiAIEEAJJjxePMLnfTSqtNW1XzW99d0qgAASIQTD3deHl9HacN97MXYSRenXrpUEhEky1bq1kIIIAQEhM58vj5t4b1WgFtarz9aFBQRQCIiBze7rx8vb0XjemgEka6dt70yESIZmWrdWkIAgIIASTE4eXM8+9XU0EpqlsCgFICgREQOb3dcea+jcmgGZG+nbe9JARIjMyumrqwCEACACTMxMc/H5t3VaIVdUubYFAAKAREQc57uzGemoqEzMnXp13u2CBERmRa1dUCBBAABJMTOHzOG7bdSLbpdJABQACgCSIMZ93dFCM5zg3069N6tIECEkhbrWgAgIEAokzmYxPl8tVrQa1aWQoAAAoFESEYnu7wCYxjObvfXpveqsAEQiQt1dUAgCABRJnOcYz8vnrRot1SpRqoIFEAUFIiEzn29wk545Ya303vprdtogBIEyXV1aAggAoUqZmcYxn5eLbSrq2pNDYAAJUUAIkJnPu7pMc+fHLp03vW9a1dLQAiAmS6urQiAEBQLUkxnGJ8/wA91aF6BFHUBAAAKUiSRM59vfPLny489du2961WrdNUFAgEyW61aIgQCCgoTOc5w8/zrdUl6LTIrsCAFgAqqRmTMZx6t8eHLGNd/R33aqtW2iqUAJkurq0iCCBAoVUkznGU8HmurI3tdJCV6ABAAKFokZmJnHOuWYvTt366C2tVapaUKqQXV1oJCEQAAqmZnOcmPBwakvTa1kLfWiAAiUKUREznnzxzyEu99Om6LataVbS1QtIWtatAiEAABSTOc5HP5/ImummrJKq+8iIAEoBUmWcc+XLGZq6Sa3vS1VW22221pQUoFattAAAAComc5yHPxcWda00Sy0+mREAUgVCxjHPjy5Yyl3qpm73aqi23V1bq2qAAFtFFCgKUKLGZiZBjlx54a0QCfYRCAq2Q0BJz4cPPyzJk1dGV3vS0Lbdb3u22goCBQEFKKCqotpMsTIIzOHj3dSCE+2CZC2gUE5efy+fnmZki1Q1retFqrrfTt01QCAQAAgAAFVVUMswIGfnc9aBkffBJBaEW2McfN5OGJmYQKLbrWtW2rbrt37dN6EhIiIggCBAAgAoKQgAcvnZ1VSSP0tIkgWWFtnHzeTzcszMzAUtq3Wtlta3vv6e291SIJEkQyhIEQgABAgKgAB5vFNBJH6hYkgClmeHk8fnwzMyFFqtUut2y267+jt26b1QEBIQkRISSJERAAQlBCAAJ4+GSDL9QDMBbdOPj8flxmZmQFqrbaVu0329Po7b3qgKAQEQiJEyiJMoRBAWBCAEK5+XhEiH6aBiBTGPJ5OOGZmAWqW1bRbq3r39PfpvQGgpaAEQgiQRJkkkkQIQIhAIDh5eUEP0qGZEOfDHm8+ZMzICrS1VtDV1vp37dumiZGrarTVoKIAASVIjKSBJEZJIiIEFTy+XBB+kkCTPLyceGcsyZAVVLVLaW66denTpu2zGOUaummru61aFUFUugLSJIUkSJIzCZTKIgGfF54RP0aFceXk8/KSZTIBapaUtVrfbv23bUzzxjnkFturd6tgtFW1dNC3QpRqpFQhISSZSRCQc/n8ITP6MTh5/LyzmSQkBVpaoLV1rv6/T00GOXDlyzClVq6uloEBS0UVSrbapqgKIhdJBIicvmeYj9A5cfHyxmTMAgVS2gLbrfb1+nv10knLj5vPjICq1bq6UAhSgEABQtBQsLrr20KJCcfleONfV83DlnLMkUCoougFt1rv6/V36bWTHHzebjmQoFt01dUAAUBBQBFQUgAvq9GhVCGPmfLNZmZmIUUWoUoLbrfb1+vv00iTHm83n55BQLWrdXQCCgAxdAAAAAHb19KRRSNT5PyozM5lKKF1QgFt1vv7PV22Bnj5fLzwAoBq6atUAhaAZUAKBEUAb9ffQKFgY+X8zlnAtCgulIC26329fs76oJx83k44AUEC61dUqiEKpKEAIVUIKoVe/p2BRaFTz/AJSC0UC61ZkFau9+r2+jq1TMxw83k5oSqAkLdauqBSApYBUCRagBSit9+tUA0Gqt/8QAFwEBAQEBAAAAAAAAAAAAAAAAAAECA//aAAgBAhAAAADmAAAMgLQAAAAAkAC0AAAZAWgAAAABIADQAABIAtAAAAADIAGgAACQBaAAAAAJAANAAAEgCqAAAAASAAaAAARAFoAAAAAkABaAAAkALQAAAACQEFLQAAIgCqAAAAAiEGt5yWgAAAAAQBQgACAQ0i6oAKAADISAFQAAgQguk3qgAAgghAIAqAAIKklEaurQQgEAAAAhQEAyCFAjoAAAAAAAFAQGealoAbAAAABQQKq0CSQqYlACw2AAAVAUAoAEBACSABsADQBKAAIsAABZAMwA2ADVAAAAAAAAzAGYBsAGqAAAAAAABmAMwDYANUAAAAAAADMAZgGwAaoAAAAAAAGYAzANgA1QAAAAAAAMwCSCpsAGqAAAAAAABgBMitJQAugAAAAAAAMRKQtl1nGqJQmtAAAAAAAAYxRdWycya0EA1oAAAAAAADGQaZkhtQAa0AAAAABKAGIRMhbZnoBQtCgAABAAFAwREytWyUaqRC0kQtoBQAC5aAGUgKJI0AWiZBaAKIoQoECkMgkFVQtEkC0RZQW2SUIUEAEllgANUJIC2pKixZStSRSFBAAZUIKh0khAtCCwCltkgChAAAIBCwLQBBYRVW2SAFEAAAQCBbUACCxAtUlBCiAAEVACNkAAgEBVKARQCAECykIaAAgAigWgCKAACMlLAKABAAANAAlAAAkjQQhoQUQAIBbQAigAAJlQQNBAAAhUFtAEKAABMqARoBAAC1gBRQFAAAzAoIoCAoUlqRAAAtCgAkgWFRQAA0MrUEQgAFAUoJAAAAUtWkIiJmKACgJQUIoABFC22hERIxlVCgAAAADQLAF0tERIRjJSigAAAAA0oCltEQkIzmCqFEACkFAAW1YVVoiCJGMi3YsABCBFQBBRrSlWhEIRMZVNapQAABAAiZAa2ttEQISYyF1pQoQAAACGMii3e6IIliTGQXdUUAAgAARM5AtP/8QAFwEBAQEBAAAAAAAAAAAAAAAAAAECA//aAAgBAxAAAADRSAALQBIAFEAABaqAGSoAAWgCIAUIAUCWgAMqIAUFAEAAEFAAKABAQKAKAIAAIUAAoACBAoAUAIAARQABRYAQIKAFABAAEKAAUoECBCgBQACAFiFCgAUAhAAAoAAAIqJSgAChMtDIAABQABQEFAAChowGAAAAAFC0CCgAAarcM4lwgAACgFBQUhSAoujM1dEWZzgAAoAFAAFgAA1pFuiQLOIAAACgQAVEAUG+gUkQHIAWAAAAAggBaB1DVRIDkAAAAAIAAAFClXdskByAAACAAAVAAAaoltqwOQCiQAAAAAAADQBbqkcgUGQAAAAAAAGgC1rUTmJYCAAAAAAAANAFpq2ciLAQAAAAAAABoAtDV40llCQAAAAAAADQBaC4ABIAAAAAAABpUFoSAWAkAAAAAAAA2CUSsb3zCwEgAAAAAAAG94EkNdC5wFgrMAAAAAAAA6aZQXWi85mkUGYAAAAAAABveVrYSZu+IEQCAAAAAAADdWmtQxmauBItBAoIAAQAVAEbrRWILrTkARCqpEoCJaAIABSrStAkcwiFUCKAERoAQKAFqi6iEMJBVAigAEjQBAoAFqgAclUBKAABIaAIFAALSgDnQJQAABIWgEKAAFsVQGBFAAAKiSioohQAA1CgK5qAAAUQEAFQUAAWooUYAAAAAJAoAABQWygUwAAAAASAoEAUAWqAGQAAALCxAAWIAAFtUBTAAAAqFqQIBUQUBAttAFYhQAAEaoiAAgAAC2gCsAAAAAUABABABbQAZAABC2AFUAAgQAFoFDKFCBEAtC6AEAAAQKAoZKBIkAqhdUgAAgAApFQowUESAqgurYQAAACWFACBkBIBVBbbUgAAAAAACEgJAKoLq1IkQLFBRQABRAiQkAUoXVCSIAAAAoCrQEzcyAVQLrQZkQAAAAAKa0IIzgBVBdaRWZEAAAAABVtoRD//xAAkEAACAgEEAwEBAQEBAAAAAAAREgECEwADEDAgQFBgFARwsP/aAAgBAQABAgH/AMSYRt4sU7U1/wCLRWseAtSY6x1gAAAAAAAAAAAAAAAAAAAD8kIrpmZmJnU1+cAAAAAAAAAB+NEV0WJZmYxqYtT3gAAAP0oVeJmZ8jExbiazHAAVVVVAAAA0B+rCpjx442kHBMz0GLRaOJqn4c/UVEXkszTPhPZFotFj8YkkkkkksxJJJJJJ8CSfpVroszHQVRyZnui0Wb0ySzMzMzMzMzMzMzMzMzMSSSSSfvRqOJ0FRRpmZmY+gW0WZnd3d3d2ZmJP6c8FmZmJJ/Ik/dJZiSfxJJJJPiAAPYisURERERERURERFmOsW0SST6EfPJLMzMzE+IVERVUAdx8gqIqj0Z1bzCqALVnRJJJPbHxCWZ3d3dmPiAqqiIiqveSzHwCY8eNFVQO4kljwB0GbX8CSSeyPXLM+TLlzZs2XI50FRERFVVVVTGqqJ5LMxLMxYktkyuzu7vt2jQAHoF2Z3d2PkTyXaNTwETEk7UbVtquzattR7+5fNlchMWHBgw4cSKoHiFVQOSxZmLHpyZWGPEiJFJpixYseLDixYsWNMaKAAPJYqqqoURSNrFGmZp4dzqdRqbRq0kxJ4m1t6d3SxCr7m7qNpR3ZMuXNmz5s2bLlneyzuxu5MjxNtzNmzRu23cuXLly5cuXLly5c+fNmzZs2fNmzZcuXLlyZMju7szszFmZvMs7eBXU+UxocGdyd1UUDkBRxNR6m96O7u+ka7969JJJJLMzMzMzMzMzM7u7u7vkyZcuTJly5cuXLly5cuXLly5cuXLly5cuXLG9TdvvZo3XVdHuFq+nvajv3rerW1vxsar1x5xxOpj0t7Uat3b36SNV64845E19He1Gpm3bvfpI1X0o8VmO/d1XV+7d/SRqvpR5TA7t3VdW1Wezd/SRqvpR5ia9u5qurajt3P0kar6UdM17L6jU91/0kar6UdU1HVfUaniOy/wCkjVfSjrFq6Zo8rajidV7L/pI1X3pgcR5W5tqvZf8ASRqvvjQjytzbVey/6SNV1M23az7Sr0TzbVey/wCkrEatta2/WColajpnUcW1Xsv+krqmtzSUqB2gKiIq8zY9E6jidR2X/SV1Xjc1tQFVVUcKiIiIqjU6YkzYnonUd9/0ldRo21teYEUiqjzmZmODNm4jonVdT3X/AEldRxOqeJ4jUR5ktMmNFjqsLXonVdT3X/SR4VkszRoxwfAsSzHgnVYrGq9E6rqe6/6SPCJbU2Zq2ixLMzMzEnUanmtaxpqR5zqvDR2W/SV8VtfwiYuxJYk8xyK0iurWNY6KcDqLWt+jrzOq2m3EeJ6q8RWteJ1M6v006C2TK+lT9HTxPRHVXztxHTTwfLlfS4420UDyH5za1as8HxjwifABVrSKqq8BE6Y3MrkJG1jUdjToKuPFhw4cOHDhw4cOHFix40REREVVUD4ddrBenqbWr3m3ZTVdtERFVRwTN3yZOlMWJB1FmZjpURFHSSTyAAO1Vx4sWHDgwYMH8/8AP/P/AD/z/wA+DBgwYMGDBhw4I/z02uN6mNVUAdtdTPEde3pmZmZmZmabH1yzM3CpG2ijpLEngAAdRJJJPwQFVURMeLFiw4cOHDhvTwjQ6a6iWLMzMzM3qlnZuFjbjajaQdJZmbhVUDtnRZmZomNRqPpbkeNZmOiuiWJJ9ZndjwkbcbWJNFj5FmZjxWIgD0Z1MnxrqNR9K0Xr4sfOuj7DO7HQSNqNnCmmPQzMx4AGq6j051Op866jUfTtW1QPgF3djoY42a7MbKs7dBebu3IA8K6j051PRXUaj6k1mizX3HdmOlx12Y2I2tO56Wncncc8AAeU6rqPTnU9FdRqPrC0TJPsnS4o20jbXI3U07s7rngKoHTOq6j051PnGo1Go+vfU+5X/NH+bBMaI6Wyzuv4BVHbOq6jrniPKdW841Go+xfU+5myz1Tad6d5vAKo9Kuo8p4jmeI8p1byERH2b6n4kzO9O/N/FVX1Z1XUcTxHE8RzPEeU6tyFUD7N9T8Gd6d+b+IVfZnVdRxPEcTxHM9E6nQUAD7VtWj0CSeQFXU7s787nkqD3a6jieI4niOZ4joAHAA+zeveAqqAPA+KovwJ1XUcW4jieI9EAfanVqj2wi/FrqOLcR4R6I+9as19hB8iuo4niPys1mon8BGq8TqdR+WAv+AjVeQPy9/wEar3E/jLfgI1XqJJ/Gzq34CNV6CSfyFvwEar4lmbgD8ff8BGq8EszHgfkbx+AiWZmPEaj8pev32Y+MflZi1ftEn8/MWr4R9Ekn9HMTX6RZj+nmqr82bTabH9WLR8lpvN2PvAAAD8VaPimbzebt78VioAA/GWrMfCm03tuTb4CxWKgemB9y1ffM3tuzc++IrFVA94fVtHtmbTu23Zt8GKxUAfIAHy51MeuWnctuzf4QiIj6QA+NaJ9W0xadydw/DER4klmZmJJJJ+OAAB7lo9Jpu5+GqgeBJZmZmZmZmZmYkszEkkkkk/EHpWr3TabzebfDEViiqB4EnvJJJLMzMzMzMzMzMSSWYkknk+qB4Dxmtq9c3tebH4YikUVQAOZ0fjkkszMzMzMzMzMzMSSSSSSekAAAC1b085tN5tNviCKRSKqPKZmx+6SSSSzMzMzM0d9q32/B7Xm/xorWkVUeUzNpt+Rr6E13NocH4oilaRUeZm02P5GIj0Zjd2/jCKVpFR0TabTb8lGo9OY3NofCEVrSKjom1rTb8pHqjH8KsRHVMzM/lo9f8A/8QAMRAAAgEBBQcDAwQDAQAAAAAAAAECIRARMFFhICIxQVBgcANAcRJSgCMyQmKBkKCw/9oACAEBAAM/Af8AxJ29hrw/d4dvLvxHQhWLvV+6v8Brav8ADL8Or3iEIW0x/kQ/DD6Pd3gx9NfTkRI5kRC2JEiZMkSH0NEbGSyJZD2PT5np6ECBEQhY6zI5kcxZizEa264+exFiIiIkWJMiyK6D9KJEyZMnqeoTJDsREiIQuhXETKLPU+09TNF/8hGlt3M1Ndl2SzJ5k8yRMnmyeZ6h6p6up6mbPUzZ6mbPUzZ6mbJ5snqT1J6ksmaM0Zoz5Pk+T5Pkb+4lzYvuYltQG+RLM/yRyNBcjQqaGQuas0sjdZIk+g1iQyI/aLLHh9xAgQIkSJEiRzP7H9j+xHkypqhc7KcC7iriNwiJEjfRGhoaGh/UWRoaYCIkSJEiRIkSJEiRzI5kcyJEQhZ262K1CIiEaiEIiIWFcX2X2aWX26IiaEFqTlwVw3x6J+32N9F7Nj4SqiL3oexYxjGMYxjGP2THtOzUe3riem1xRHlZeS5EnxYujftKY90fbXdn06R+0oS/ieopL6sWke5adI4FEVjjUXctOkURRHDGou5adIobqKopi08G0N1FcanctOkUKFcanctOkUKY9O5adARx26FMfd7lp0CjOJntUt4Yu73LToDwKW8MXd7loXF9D6o39Fpbwxd3uREnwN2+Vm5HotHbwxd3ubcZK6+6huR+Oi09hu9yVsofpy+D9OPx0Wj9huvuStv6cvg3I/HRaMpj7r7n3JfBurotGUx919z7svgp72uBQpj7r7no8Be+oUsVxTE3X3JXZu4mXu7oYFCmPTuSuwox1HLj7yt2BxwlayQ+5a9OiKyRIltU7k3iqLn7FjyHkSyJZDHsIQhYVwyQxkrELDQshWJiy2UIWYsxZizNTU1NTUeYxjGSJZEsiWRLIlkSyJZEsh5D6LKRI+j2u9j3u1CEIQhC9i7yVkerIWQshCI5EciORDIhkQyIECBEiRIis1NbGPMYyRIkSJEiRGNrkSyJZEsh5DHj3Y+8U6W+z0LIQsiJHIjkRIkSJEiRIkSJES9jTo72V4OW0x7CF4NW0x7ESPgxC2mPYgiKsfgx7LHaj0kR5IkPPCVr8CS2NCEeMj7Yk8NCsY/A8T0l/IjyiS+DPCihDJeCsok2X8cKK5kSRJ8/C0VxkQRLkiT5+ForiyCJckTfGXhZIgjJE3z234Tv2nYvC7sXhpf6Xa+Ha+Ha/wDMdd4dvLvxbfhp+F6FLH+GSVr8GXeHrsBeFby7w7f+Hl9j8Oroa77/AP/EACUQAQEBAAEDBQEBAQEBAQAAAAEAERAgMDEhQEFRYVBxYJGhgf/aAAgBAQABPxDlO1nscsss5zqZmfYkR7VmekiP4bMzM/wj3zMzPsCIj2zPQRH8RmZmf4R75mZn2BER1b7BnoIiP4jMzP8ACPfMzM984Ijp32LPQREfxGZmf4RHvWZmfYERHtmegiI/iMzM/wAIj3jMzM+wPdPQRH8VmZn+CRHvGZmZ9gR7l6CIj+KzM/wCIj3rMzP8p5IiI/iszP8AAIiPesz/AC2eSIj+KzMz78iIj3rM/wAt6CIj+Kz/AAiIiPfP814IiI6GZ9+zPtjtkRHS/wDDM8EREcsz/AZn+ARER0Mz/wAM8EREcszPv2f4JERHQyy/8KzwRERyzM+8ZmZ/gkRxtvGyyy22+x23of5zwREdDM+9Z4e8J8HGb2zIeH2AER1LL/Dyxsssssss96RHBxvDLPvGZme4G23mEhAtLThDGyrgjnLLLLLOAQWWWWWWSSWfygAAAYAAZZZZZZZZZZZZZ3tt4Ihthtttllttt9zsssss9sbEWhOIv+opMTARl05ZZZZZZZZZZZZZZZZZZZZZZZZZZZZZZZZZZZZZZZZZ7UAAAySSzjLLLJJJLbbbbbbbbbbbbbYYbbbbbbZZbbbbbbbbbbbbeNttttttttttttttllltt7I2OQJxMdxSEKQ2wIWw8SJ2s7GcZZY2NjY2NjY2NrsAMsssssssssssssssssssssssssskkkk4IILJJJJO8MNtttttssttvVtvG8bbbbbbbbbbbbbbbbLbbbbycifBCgQBLnKLbbbbbFO0h2wSFlOMfsv9HDP3YsWftsfb0BZ4sWLHHFhz4WFhYWFhYWFhYWFhYWFllllllnOWWcZZZ3WZlhhhh4Zme9tttttsstvvNmxhvxEChW4dp6rJIBOSzHiLLbLDbbDCspGcJBFbEckfytttttttttttttttlllllthhh4LLM9/bbeNll94JiAgFhw0IMCxAkUjIySyltltthtththsOYLpEckR396N6NtttLS0tLSx1BzZs2bPsM/8AtYsttvSCy+y33/gWALBMYzcKwkKJgnCUlJHEsssvGw2w22www8gQh504Ho3nbbbS0tLFmzYsWLFmTZs2e5/7Vq1atWrVu3bt27dq1atWrW1tbW1t6dbbX+l5SAhGH1CYmIJALRIJrWqlTVllltllhththhhhhik0+yx9l+nNfhZs/U/m3b5jVu3LtS2192vu1tbW1tbbbf6GWfwss4yyyyyzk8w+kKHYSyTGMYxrWMWWWWXjZlh9ZbbYY4GGG223tZ/M20tLS0t5NtYWBsssssssss7ec7LbaxsDZZY2NjY2NjZY2NjY2NjZZZZ2RtiHE8LWM2WWWWW22W3lmPPQMPBbb29t42223jbe1vsNttLSxYs9PatbW1sbGFbilKFllllllllllllk8bbbbbLa3q/EjgBAgQLH1Y+rNmzIk8MWbFmDJICQvS9L04wsJCwssiBI6gNttlllttttt52WXpEPBwdzbbbbfZ7aWlixZkSJHRNW7Vra2vGMKFGovo4EOEoYMss6V6NtJSZsttvAMN8Q2DAiggFhYewXBFsbGxsYG2yoVuHFDLaeyAbLLLbbxvG28PQODg4O3vG2vRvLbbbaWlj7s/cj7kyJMmTNVbtWrW9bGxsbUOFDhw+IYH1YzMgQIAgJxkONLS20ltlttlsSbEq3a2t62MN8QsKKCPzFJ/iLgsO9gkTWsWyL5YLFmQLCyOAJy0nmf8Wtr9NplFrmIM9p6BMRwMPa220tLEj7n7iS+Zgw2wnittvhtfhtr1W3zFfpDinFmzYgR+I/EUbCzbBA+oG+JJnpYITZQkmTAdDeB5SrXBLyyV6vA34Q3iIeYh5Lf1Hq8WfqV8RvpZr9X+UWTn54aWlpaWlvVpaWll5EkZi/JfivxT9xIjr5LT8kuCvySpCt6/Vj9XqPiI/S1tSNWQeWQeLSSWDH0YB8skYAzThsvABJUGVA6SiraJAH0tsnGcZZZZPDHi3g4I4I7WEzS3zbfLb/AHC/EG+GFh4+RgfLFgQEHH1cGbFhYWFn5Y/Vv6tX+oEGB8FieTLIIJpq2MsIsh+ycnoyjzOviML9JId0hMxPW0/MtHwcej4gDyt6HCnl6SEBcRC+MwvkJS1TH0LBPAjEp+ZF6GVdinzC7ty2NpeOLsfZ2/TPwOBPVWc/RY+SnfRR9jO3ot6nmNhwg5FIIUIT7xPvEjTykK+sK1DGcGIMfjN+ipwymNRrny0r0Ju9U/8A2C9VIEYSDZBn3PqfTdJGCDnzCBqh9bJPoqz4lWVSQAq5EgzLsg9cM3MJ9m7P5NgwPoEg/OpA+WXotM/GMP59WiPqH4dhg6XEhkeHJfIsfaEkMossssgsksnzHJMRbbHaIg2EaHmGA8C9Po423s7LIfCPlbO+rL9yOHPvJ+FJy9DANwwuYBzGAJgbAoxGlEyUuZEBuh0+GTpiZKrCu+mJI0aGTR2U3GczBGUu6wPKJ2Bm+0xADQGbCObiY0ws54YProwT4iYsvF6TH1TYjDcesjmJH2li+SE3HgDbD6l+hJA6Xz6Xo7pPwiCj6kn7LH0gPySHhIC5pY9MS9DVjE3JbwFo+SX7QkfRq+lv2Ld5s4YfnZnglekJdb1L9Wo7tu7efQtfBloM2Ap4g9SZ5+pPkDaDoBp9SaNTxChgGS6qjxGgYGSL1MJUMAtouEI4YSYs56A/W8+q+i9IIQrUsGAeCKQOMGTPFuyC0lSZHJycbHaWMPBHJ07bbbbbLJrx29vbW2221tYLwpEASiDw/Ja2sLa2tra2v3a/dr7bX3a+7X3b+7f3b++L9G/S/S/S/TkP06At27du3btWrVu1bt24f22vttfbHAbt/bCtfba+29LNctfba+1+1r7hfct+bf3Ct2oQjrywy19luJuGS4ySrW50cVUt6C+T59ED4JwvxerBByxN82ST5iAZNkdZwdtzwf5xttttttttvG8bIAPlx9sj0YG6eGH/AIPedlbbW3ho8xJBZwcE8G+ThnzHI6SjZJ1HO222222yy0i9H+EsABVjIxj07ztttts99uPj/jfPsRMTeTM+Y8TJ6x0EMhJJ0ltsNtvQvHh/u/8AmLD/AEvUH428bbbbbbbbbbLfbr4mP+GenzvFz89BMTHmZ8x4mfMdJBkNnJZ2ttttv/sl/wCRPJuh+nG8bxstttttvuAyx/xfneLn56CYm8Mz5jxM+YetsShsnp22222221lp/wBlD2PQy222222228bx4P8Afbr6cH/F+d4EcfPQeJjh8yz5gmfMdghsJLOjbbbbbbZZaf8ASULRPBtttt43nbbbZaf99usf8O9PneDn5eHgmJkm+ThnzHZIPEllnG2y22228z9N4ocWHQtttttttttt48ftly88Jh/wz0+d4Ofl4eCYmDSY8nDPmO0TbSUScbbbbb0r9N6mXGfpLbbbb1+P2q5eYL0P9l/4Z6fMvBycPAzEx4mPMM+L5juEthZIILOPQOElNTH688bbbbef/SXonzeZL0bffy8BtueP+IenzLwcnlmWI8zEx4ngnxfMR2jjYl7OMqgPhNLQeoW22W2W8kPoceE8H30suwQfc7/xL0+ZeCJYnWwiPLMTHieCYPWCOycHCdkTmmPqyldfTMIIYq29PkjwceE+Xc83+nsVCXY4W1ttbbbbbbbbbbbbbbS0/sPT5T9EI1cL1gIwwm9BMTHieCYII7RAsJt9nzR4JvCfLueb2C5erZ/T3u7172g1sGsPQNgk1DgZ1zw2chB2BPghMJvRwhCw7W8JvCDz3PN31g/4/ZbeDzeQWACH/net2x5Zmy7Vj1vAQWWNr6hvxChRQECBAEhGFhL7PnvCb4R9HuebvLB/yD0Hm8EvUlHDAf8AdA/4pMxExiiFtmcCYUUMUNiDAgkgSCPVFIjgeIdOzvGZNSDD3EXJVg/5Fnk83gn6k+iW/wCu9H+boQkJDi750EEgIDo0tOdUPMZu2Mx3O5gHp7eLl6sH/JM8nm8iXqS+k/8A0Tw/wh4JQnbBwIIOpSRNeG6Z4TiY1ZWBk/XOx/8AI8HjHt0tmwf8m9B5vMhxJfSX/wBFkf8ACKCQSnxEL6Q2DIgltpaSZjWsY09WHCXM2VbEtLx9GcZx5P8AHiGjHiPU9q1gs/5R6DzeZfJLL/5NiEQVsnNgFmHbNZZzFONjGMa1i7wUtsiwkoExFWOc6PJ/jxJIYHW8Xc9f+PYXYP8Alng4PN4J8yz4YFgDWBK+noJWFhbWc+ZCCnDfF5bFllvW3glhMsBKHA3SXysWdT5f48GQTwHaUknzJIVG+TqWWP8Al2eTzeoXyxeDeGbENUoW7CCCPMMTbbZbbZbZZYSMqwGQBLJmtkIHgI6M5fH+G8bOtB8klJmLWqF8s5F+jqfHB/wr7J6DzwPosGs+H9OHPoWqwRER54GeyZ07bLHqwMgICHhGT0hI/TafV+WDrfDeg5UPLIeWRlfBLWr5YSEwwSAQCQo+zJEUSzozSV9WJ/y70ENmhFn0PiUPLLeCIhlLjbbYS7xj9WP0z9Dfsv1SnhWqFiBQLAsi1o35kAZ2Hw/5AMx2aW+ZTysN8MNJBQXxA+rOrCw+iw+ifwS/RKPASJJqC8AD8QX4gMDk/wB1+6/Zfts8fd39LX0n6k/YX7F+h0dP0X6L9N+m/Zftv0X6r8m19Nj9Nj9NjY+922BYbcw4mQNvfegnhjEDgVYLIIiIZfXkYYEMGKaObzlChMTYS4VqF7DIoBhPOEGCgngsOypIkEmaqUwLCYUOBALNhxttvKkpNaxmtjAwopSEyyzjCQsPosPok+hJ9En0SfQg+pCfCG+EfSj6HO359TeftftZ+7E1N/d+3bn2+gQ01gDjNSZfsv0X6r8m/JtfTY/TY2NlnOSWcklbIvQzghhhnzbwMsEehM3M10FrWPDWyytr2s7SkkkTVyrVgUJhyQSAfEAsLSWW3nZSTMa3TerAsOKUhAss6mWeBrWtKQYiPYkdtD6vyL8l+Jwvy6xIB6oq8iZ9Czl4asg42GeSWJOCeF5bGM1alS7LxnGPf0kkmYuVasChsjJAQVgsLSXpWUJMxjPVasCwohCkyyztLKYxjGKk2cuBHcegj3+4yWWSQ5AmSbp0EvpDz5EZDixq+RbbbbbbbbbY7ahIfMiVLl2rAviElZfqAQcA+CQTFXqycOSlpJkTGsWyrY2nCUgQWdW229SzspcrOzwPrLmI7bPQRHvgSUVskkkhSPTjYZS0tt2G3oFttttttttttthttt7ChISfglSn5l2rDfEPKz/UUK0eCR8EttfvjLOFllCQTWrZbatixDgSEPSyDsrbD1Kd5ySWTweehEdtnkiI9+CSjMYklnQdBDDbbbb0bbbbbbbL0peWQ8ay/glfcxdqw/ghZGX6hIP6pfGJb4JTy2r8vGWWFpbL+ySQQzVMq8YxCECCyeHh07bbbwzwdLLinrJPDwdCI7jyREe/yB4VyEhISFhZZxtsMMPYek6E/BMKfLMXav2wvxCeW1zReE3lCzyusF5WW+iV8rnelWUPLJQHCpKfLYwLDilJlnQ8nhytstsMRw8D0vKzPDweYcxHbZ4IiI5Z96hIshkF5NttbeCIhh7ryr7gXwLDfGQmGCeCZ8QxJL9EkMlb5Ak3yr/rAHg6AvSY2UPLI/MCRl5Ty8BCYhC4LDsPJ48M2WWcDEy2wx0PByyy2zwPWMOBHbZ4IiOhn3/i3k9kiIjnO4j5IiQ8svjtlHnf9cLTxn+DWdeS/wCuwB4C3nOfVvHlnzGRkSkq+VssgYcQgCA7j1F4yZYYZfSXAjoeClll5IxhER3GIiI6GZ994t5PYIiCLO5svDVFaetb0LS1sbLC0tsbyAgeCR4MnzFatlkEJhQIMB7BnoVlhhlLKJlD69R5l9ZbIII4wgiI7bwRER0M+/8AFvJ7BEER2942W20+pWxsgC0tbFvAheCFkeAvLPjLLIF+ITFAQFnGWe1allEpfXgTwPPA6GMJPWyKQhSBBEEHdIjg6GZ948eLD1ewERENvG2222222222y23paWtiy+FLwWsrwF50t4xsIIb8Q/lgEAe4ekuX1hEp88CYQQdQjPriFIQgQQQQQdt4I4I6GffjRsls6yONttttt6Q1tbFtW7VuT1FL5PZfBl5Nkv6vGNlhAvghvMA8sE8HvW8ubl14Hjg+eBJD1vDLqSSaQgQRCkCCCztvBHBHQz79NLbWROvbbXjGxsbG1bhRAQYMCAsLCyUtVbeMsI/CF+I+7AfH8J5cXhvrwIWesCDhLIjqSSyyCIQgQWWdx4IiI6HjPZZZ3AJxqGyzgFkYGCAgsLCwsLCws5OBth42wvQhPAwvlCCgDwB/Eby4vB8xgkk4HiJLIIOp5CCIEFneZ4I4I/gZZZZJJINrIWQbBksEHBHXtsPA2w28A+VYDwH8hvLmZ8zj1JJII6M6ll4CCCCCzvs9BER7/LLLJJJJImUinC8sEcfHGcPUcByfy28+Qh6xjhLIOvZZbYgggggj2DPSRH8JJJJJJJDJ4kcEvQ9OWRxkWWP8pvPoMIHY2WWWW2CCCCCONttt7r1ER/ByZkmZmfE9Yjgjjeggsgss/nt59LOvZZZjN4CCCCI5232pEfwmZmZmfDPVwcHURB0bbbb/ADG8+y2WYxrNYGCCCCCCPdER/CZmZmbwbzRHRvQcbbevSd/LPeN59ZZZrWqb1YGCCCCCCI92RH8JmZmZnwxxRHB0ZFsQcHss9nllnaby6ShMYxmrAxCBBBBBER7wiPd7zttvLMzMz4jjEcHJxsH8fLLLLLLLLLOlvLhpIJrGMWx6wRAggg52G2G2222232xEfw2ZmZ41GfRiI52WCLeh686Cfb5ZZxllkk8PLDjwsYxTKtiEII42222222G2222222222222223uER/DZmZnhNJBU4GG22WHWIjgmXoOcsssssss7OdrLLOwzMssssYlSmXkIOAw22222222222222222222222222222222229BEfw2ZmZ5BJh4G22WI4OCZZYiI4yyyyyyyyyyyyyyyyyyyyyyyyyyyyyyzpZllmMZvGWWWQQQRDDbbbbbbbbbbbbbbbbbbbbbbbbbbbbbbbbbbbbbDDDbbbbbb71mZmeg0kHoeBwPB0nRllllllllllllllllllkFlllllllllknLLImtatvBBZZZZBBHGw222222222ww22229zbbbbbbbbbbbYYbbbbbbbbbbbbbbfbMzM9JpOOhZJZEcEcb0HRllllnOWc5ZZZZZJZZZZZZZZZZZZJJKEgmMastvBEc7bDDDbxttvG222w2wwxERHtttttttttttttttttttttttttttt7jMzPUgwypUiREdjbbeM6M68ssgsssssssssssssmUIOQVLbbbbbDDbbbbbDDDDbbbbbxttsMRBBBBZZZZ77bbbbbbbbbbbbbbbbbbbbbbbbbbbZmZnsIMmzIYYbZno2223nLLLLLLLOMssss6sssss4UJBFxKZTLLLbbbbbbbbbbbDDDDDxttvSRAw4pTojLLLLLLLLLP4G2222222222222222222yy9tNElTDDDb07bzlllllllllllllnGWWcZBBZZKSCA495TLLLLLbb2wggiOwEFpwFKcjLLLLLLLLLLLLLLLLLLLP4W222222222229wBIoYbedlt422yyyyyyyyyyyyznLLLLILJQgPmM4FZVlllllt6c5yyyyyyCCCCzqCBYTzBSBZZZZZZZZZZZZZZZZZZyZZZZZZZZZZZZ/R2kyLeNt5bew9jLLLLJySRnArLfLLLLLLb05ZzlllllllkEEdQQmXgIUgWdjLLLLLLLLLLLLLLLLLLLLOGWWWWWWWWWWWWWfx02xdk6Ntttt4222222W222222G2GJBCRGyLKlllllt6sss4yyyyyyyzoI6AgXkikIEHfzqyyyyyyyyyyyyyyySyzoGSSWWWWWWWWWfwDpYbJ2ttttlllttttthsEwjhfKvltllllt7OcZxllnZI4COSBBFttttttttttttvtcs4yyyyyyyyySToGSWWWWWWWWWWWWWWWe3BPb22ec52xWM56mIZG5LfLbLLLLL7rIIII4AQQ228Ht4PKcBBtLS0tttLS0tLbbbe1lnCWWWWWWWSWWWWdYGWWWWWWWWWWWWcZ3U3hTvZwsoeWSeJ35yXmEt+ZZbZZbfd5BAwmIUoRDbwY1jyylOjyEICIezcfwbbbaWlpbaWnHpenRllllllllllllllllklllnBLLLLLLLLLLLLLOhNLCTpbbeNtjnyDN+BH8aypbbbZbe5nRncyCEyvAQ5WWSSzGtW23o3jbYYWFhYWHDty7du3a7gADrBnVznpjbbSxbaWl6Xp04WFllllkkkllnJlllnDLLLLLYmU9DwPQoGqEIoGy76sqqGSnysssttvdznLLO1kEEJmYyKQ6IySWUxbe2REMez1tbW1tWrVu1atWutUmOrBDtP5ixybbbDZZZZZ2QAUkb0NnIt9dnB9QtP13dZHyy2yyy2+xyCzs5ZBCZmI4CEyyyyclCHgUy90iIiLf4u2tra2tq3bt27du3atdgQRbHOcZZZZZZZZZCGdKSZLBwv4LTdVkfGErLbbLLb7M53qyCCBZ3lQQCDjeFl5bSWW23uERER2N69t7O2/wg1hB3Ms4AXkQlDicrfLbLLLLLb3Askssss7OQQQQmdhISCQBzttrLPO1MtvfI4Ij3Ow/wQ4hB3iIEvIkiPGyyy294jozs5BBBCmYSEgkAcba3ryocB/cjLb7EYjg53ubb2sg9nvG9waxg9htsQtNSTcxlll9gRZztvWEEER2GIgEFlllnKhAWM7KtvXnb2IiI9xtvb223r3vBGPS2222222222222223gLJDOk+yO6QQcIoDreFkmkz7YiOD+0cDtbbbbbbbbbbbx/8QAHxEBAQABBQEBAQEAAAAAAAAAEQEwABAgQFACEmCQ/9oACAECAQECAP8AHGT8356Jo0AAAAHkKujcAAAAAAAAADww2eDo2nSVVVV8BV0YJXSqqqqr5lrpV8wyAAAcvqeaZAA5tvOwA6Id9VVVVc52AAAAAAAAAAANBoNw3C8wOnPSuG9SelcN6k9K4bwM89K4byMs9K9AyT0rqZpDJPS+tS6XgH5smrbXJPS+uUn5NW/q2at0XJPSvGaZ9fq/S7yNyT0rys5SFuADTL6N53BZ+eE2V4mlVVVVVVVVVVVcVwqrbjAVeAGIO7eTlDSq8A6F7joNzABpVdlA09G9wDK7LwA698xdwOjeU3fNA6d4XU4L4oHcu11P4yz+6n8fPEDT/Ehq6vJVX314gclVVVfNA3AwOZVVVV8AAyW36Xsqqr2AOSvC2/T6YBsAZW32gMy27gAeNLhAzW36d5JDkAAAAAAdOXkGe2/WjeQ7wAAGCXYDPbfrjJJ5FuGVM7fp0byeVcn/xAAfEQEBAAICAwEBAQAAAAAAAAABABAwIFARQGCQUXD/2gAIAQIBAz8A/HEWL+PxrOlnaRERERERER0jPvGSI4PSEYfQIiI4szM9gRh7py4Zn4NnWd+RGtnqSNhEe48X8K/GhmYIj4kiOKvw3jSB8canBEfEERh4vFmZmZnLOoiIiIwRHrEREZdTgjDoI6J4Ol3OCJ0neuSJ5GHB2LO90OCPg2eDg+JZj84jD8WYf8YOTMzOGfgnaYI3Mz150ZERERHvk8ntPEek3nvf/8QAIBEBAQABBAMBAQEAAAAAAAAAEQEgABAwUAISQGCAkP/aAAgBAwEBAgD/ABxtZflVVVVV2XowsvjpwVVVVVVVVeoQkwssfmAA6MPUuppmZfE2AAAADrZs6PWQ4TrVVVXLxujuVfgmpVX4V+80AAAc5qWXpHo5suz7e3s/hJwzaX8HOGby/gpwzCX8DOGYsvLeynDM3kvZTV5rXkvZeOrM1ZbtPE5L2Xjmuj1kupNM5L2XjgWHr6zxDUmrfWcl7KcAb2shmros7GZzZW6umeXvhdgMV0AAbgAAAAAAc04LoD19ZA4VeBXqZkBu5q7hgvVzOaXgXANg0ujrV+EMV/BmK/iV+i4H3zgf5adj8S7T8YHwAbAHaL9IAAAdC6XkA+sAPpXTkGIHaK7K88nePOG6qv4EDB4HZVVVVX47M3nJMXo1V4LMHnJDBeonFZ8Uhjb1U5P/xAAfEQEAAQQDAQEBAAAAAAAAAAABABARMGAgQFCQcID/2gAIAQMBAz8A+OLHTiGkl8NtEIQve0Y5mMfZYxqbUQ8xvQh2GPrtTSjix+Ed8JS8Y0NHeYaNeOC+nXxFGMfcIQhDCxocSHIhCEOox7LGMY1IYjGekUIYzWX8POJ82D9fNnIaMdFjV/g//9k=;" vertex="1" parent="1">
                    <mxGeometry x="188.85000000000002" y="140" width="481.3" height="306" as="geometry"/>
                </mxCell>
                <mxCell id="102" value="" style="rounded=0;whiteSpace=wrap;html=1;" vertex="1" parent="1">
                    <mxGeometry x="45" y="2900" width="765" height="60" as="geometry"/>
                </mxCell>
                <mxCell id="103" value="Created for Daniel Faria&lt;br&gt;2023" style="text;html=1;strokeColor=none;fillColor=none;align=center;verticalAlign=middle;whiteSpace=wrap;rounded=0;" vertex="1" parent="1">
                    <mxGeometry x="315" y="2915" width="220" height="30" as="geometry"/>
                </mxCell>
            </root>
        </mxGraphModel>
    </diagram>
</mxfile>